<svg width="131" height="14" viewBox="0 0 131 14" fill="none" xmlns="http://www.w3.org/2000/svg">
<g clip-path="url(#clip0_1701_1304)">
<path d="M4.65 13.51C7.65 13.51 9.43 11.84 9.43 9.58C9.43 7.76 8.05 6.73 6.58 6.27L5.04 5.77C3.63 5.32 3.01 4.78 3.01 3.76C3.01 2.27 4.2 1.19 6.01 1.19C8.17 1.19 8.88 2.64 9.04 3.48L10.36 3.05C10.1 1.77 8.96 0 6.08 0C3.5 0 1.69 1.6 1.69 3.87C1.69 5.69 2.86 6.51 4.2 6.92L5.76 7.4C7.14 7.83 8.01 8.44 8.01 9.71C8.01 11.22 6.73 12.33 4.72 12.33C2.71 12.33 1.5 11.12 1.3 9.56L0 10.04C0.28 12.12 2.07 13.5 4.65 13.5V13.51ZM16.56 13.51C19.65 13.51 21.27 11.74 21.97 8.43L23.72 0.24H22.4L20.71 8.15C20.15 10.75 18.96 12.3 16.56 12.3C14.16 12.3 13.51 10.74 14.05 8.23L15.76 0.24H14.44L12.71 8.41C11.98 11.74 13.57 13.51 16.56 13.51V13.51ZM26.35 13.27L27.48 7.91H31.42C34.23 7.91 36.18 6.24 36.18 3.78C36.18 1.83 34.8 0.24 32.07 0.24H27.81L25.04 13.26H26.34L26.35 13.27ZM28.86 1.46H32.02C33.9 1.46 34.83 2.54 34.83 3.8C34.83 5.55 33.49 6.76 31.33 6.76H27.72L28.85 1.46H28.86ZM46.02 13.27L46.28 12.06H38.74L39.78 7.09H45.44L45.7 5.9H40.04L40.99 1.45H48.53L48.77 0.24H39.95L37.18 13.26H46.02V13.27ZM50.47 13.27L51.68 7.65H54.95C56.83 7.65 57.24 8.43 57.41 10.01L57.74 13.27H59.14L58.71 9.87C58.54 8.53 58.1 7.53 56.64 7.23C58.46 6.99 60.21 5.78 60.21 3.43C60.21 1.63 58.83 0.25 56.47 0.25H51.93L49.16 13.27H50.46H50.47ZM52.98 1.46H56.38C57.96 1.46 58.87 2.33 58.87 3.6C58.87 5.44 57.47 6.48 55.45 6.48H51.91L52.97 1.46H52.98ZM66.8 13.52C69.78 13.52 71.45 11.99 71.45 9.8C71.45 7.85 70.02 6.67 67.97 6.17L66.17 5.72C64.51 5.27 63.73 4.64 63.73 3.43C63.73 2.07 64.88 1.18 66.61 1.18C68.84 1.18 69.7 2.65 70 3.47L71.23 2.89C70.86 1.77 69.56 0.01 66.71 0.01C64.24 0.01 62.43 1.39 62.43 3.51C62.43 5.63 63.86 6.51 65.65 6.95L67.51 7.43C69.15 7.82 70.08 8.58 70.08 9.89C70.08 11.36 68.87 12.33 66.86 12.33C64.85 12.33 63.59 11.16 63.1 9.56L61.82 10.16C62.49 12.17 64.18 13.53 66.81 13.53L66.8 13.52ZM79.17 13.52C82.24 13.52 83.84 11.66 83.84 8.38V0.24H82.54V8.15C82.54 10.72 81.52 12.28 79.17 12.28C76.82 12.28 75.78 10.74 75.78 8.15V0.24H74.48V8.37C74.48 11.78 76.21 13.51 79.17 13.51V13.52ZM89.18 13.28V7.92H92.83C95.57 7.92 97.05 6.28 97.05 4.07C97.05 1.86 95.58 0.26 92.86 0.26H87.87V13.28H89.17H89.18ZM89.18 1.47H92.58C94.76 1.47 95.67 2.64 95.67 4.07C95.67 5.5 94.7 6.77 92.58 6.77H89.18V1.45V1.47ZM101.22 13.28V7.92H104.87C107.6 7.92 109.09 6.28 109.09 4.07C109.09 1.86 107.62 0.26 104.9 0.26H99.91V13.28H101.21H101.22ZM101.22 1.47H104.62C106.8 1.47 107.71 2.64 107.71 4.07C107.71 5.5 106.74 6.77 104.62 6.77H101.22V1.45V1.47ZM120.33 13.28V12.05H113.26V0.24H111.96V13.26H120.33V13.28ZM125.45 13.28V7.64L130.03 0.25H128.49L125.72 4.92C125.39 5.46 125.01 6.09 124.81 6.39L123.92 4.92L121.05 0.25H119.49L124.16 7.67V13.27H125.46L125.45 13.28Z" fill="#1D1D1B"/>
</g>
<defs>
<clipPath id="clip0_1701_1304">
<rect width="130.02" height="13.51" fill="white"/>
</clipPath>
</defs>
</svg>
